<?xml version="1.0" encoding="UTF-8" standalone="no"?>
<!DOCTYPE svg PUBLIC "-//W3C//DTD SVG 1.1//EN" "http://www.w3.org/Graphics/SVG/1.1/DTD/svg11.dtd">
<svg xmlns="http://www.w3.org/2000/svg" version="1.1" viewBox="0 0 275 279">
<g stroke-width="2.00" fill="none" stroke-linecap="butt">
<path stroke="#5e2426" vector-effect="non-scaling-stroke" d="
  M 27.04 202.50
  Q 26.22 205.34 28.56 206.69
  Q 83.22 238.14 137.60 269.56
  A 1.28 1.28 45.7 0 0 138.88 269.56
  L 248.39 206.42
  A 2.00 1.99 -12.5 0 0 249.39 204.86
  Q 249.88 199.76 249.87 195.75
  Q 249.75 139.75 249.81 83.75
  Q 249.82 80.99 249.46 78.25"
/>
<path stroke="#703526" vector-effect="non-scaling-stroke" d="
  M 249.46 78.25
  Q 249.74 77.40 249.19 77.06
  Q 234.91 68.37 214.79 57.25"
/>
<path stroke="#808080" vector-effect="non-scaling-stroke" d="
  M 214.79 57.25
  L 171.36 32.33"
/>
<path stroke="#703526" vector-effect="non-scaling-stroke" d="
  M 171.36 32.33
  L 138.69 13.24
  A 0.87 0.85 -44.8 0 0 137.82 13.25
  L 27.76 76.69
  A 1.40 1.39 75.2 0 0 27.06 77.90
  L 27.04 202.50"
/>
<path stroke="#efb4a6" vector-effect="non-scaling-stroke" d="
  M 171.36 32.33
  L 60.49 96.63"
/>
<path stroke="#cd584c" vector-effect="non-scaling-stroke" d="
  M 60.49 96.63
  Q 59.16 95.52 56.79 94.18
  Q 42.94 86.35 30.28 78.86
  Q 27.99 77.51 28.00 80.16
  Q 28.12 129.59 27.97 178.69
  Q 27.93 189.72 28.00 200.75
  Q 28.01 202.37 27.04 202.50"
/>
<path stroke="#c88d8b" vector-effect="non-scaling-stroke" d="
  M 61.04 98.00
  Q 60.75 98.49 60.75 99.75
  Q 60.75 142.75 60.75 185.74
  A 1.11 1.08 15.5 0 0 61.30 186.68
  L 137.47 230.91"
/>
<path stroke="#ce9393" vector-effect="non-scaling-stroke" d="
  M 137.47 230.91
  Q 176.44 209.50 215.38 186.53
  A 1.14 1.14 -15.3 0 0 215.94 185.55
  L 215.71 98.00"
/>
<path stroke="#efb4a6" vector-effect="non-scaling-stroke" d="
  M 214.79 57.25
  L 182.24 76.21
  A 0.52 0.51 -45.2 0 0 182.24 77.10
  L 215.96 96.50"
/>
<path stroke="#dda3a6" vector-effect="non-scaling-stroke" d="
  M 215.96 96.50
  L 215.71 98.00"
/>
<path stroke="#f0efec" vector-effect="non-scaling-stroke" d="
  M 215.71 98.00
  Q 213.90 97.94 212.34 98.86
  Q 192.69 110.45 172.75 121.54"
/>
<path stroke="#dda3a6" vector-effect="non-scaling-stroke" d="
  M 172.75 121.54
  L 138.95 102.04
  A 1.53 1.52 44.7 0 0 137.44 102.04
  L 103.94 121.58"
/>
<path stroke="#eae9e5" vector-effect="non-scaling-stroke" d="
  M 103.94 121.58
  Q 80.08 108.27 64.75 99.25
  Q 62.81 98.11 61.04 98.00"
/>
<path stroke="#dda3a6" vector-effect="non-scaling-stroke" d="
  M 61.04 98.00
  L 60.49 96.63"
/>
<path stroke="#cd584c" vector-effect="non-scaling-stroke" d="
  M 249.46 78.25
  Q 247.59 78.06 246.31 78.81
  Q 231.20 87.76 215.96 96.50"
/>
<path stroke="#e0a493" vector-effect="non-scaling-stroke" d="
  M 138.29 181.09
  L 172.46 161.26"
/>
<path stroke="#ce9393" vector-effect="non-scaling-stroke" d="
  M 172.46 161.26
  L 172.75 121.54"
/>
<path stroke="#c88d8b" vector-effect="non-scaling-stroke" d="
  M 103.94 121.58
  L 104.18 161.47"
/>
<path stroke="#da9e8b" vector-effect="non-scaling-stroke" d="
  M 104.18 161.47
  L 138.29 181.09"
/>
<path stroke="#dbd8d2" vector-effect="non-scaling-stroke" d="
  M 138.29 181.09
  Q 137.54 205.55 138.25 226.00
  Q 138.33 228.43 137.47 230.91"
/>
<path stroke="#cd584c" vector-effect="non-scaling-stroke" d="
  M 172.46 161.26
  L 139.56 142.26
  A 2.86 2.78 44.4 0 0 136.74 142.25
  L 104.18 161.47"
/>
</g>
<path fill="#df694c" d="
  M 171.36 32.33
  L 60.49 96.63
  Q 59.16 95.52 56.79 94.18
  Q 42.94 86.35 30.28 78.86
  Q 27.99 77.51 28.00 80.16
  Q 28.12 129.59 27.97 178.69
  Q 27.93 189.72 28.00 200.75
  Q 28.01 202.37 27.04 202.50
  L 27.06 77.90
  A 1.40 1.39 75.2 0 1 27.76 76.69
  L 137.82 13.25
  A 0.87 0.85 -44.8 0 1 138.69 13.24
  L 171.36 32.33
  Z"
/>
<path fill="#ffffff" d="
  M 171.36 32.33
  L 214.79 57.25
  L 182.24 76.21
  A 0.52 0.51 -45.2 0 0 182.24 77.10
  L 215.96 96.50
  L 215.71 98.00
  Q 213.90 97.94 212.34 98.86
  Q 192.69 110.45 172.75 121.54
  L 138.95 102.04
  A 1.53 1.52 44.7 0 0 137.44 102.04
  L 103.94 121.58
  Q 80.08 108.27 64.75 99.25
  Q 62.81 98.11 61.04 98.00
  L 60.49 96.63
  L 171.36 32.33
  Z"
/>
<path fill="#df694c" d="
  M 214.79 57.25
  Q 234.91 68.37 249.19 77.06
  Q 249.74 77.40 249.46 78.25
  Q 247.59 78.06 246.31 78.81
  Q 231.20 87.76 215.96 96.50
  L 182.24 77.10
  A 0.52 0.51 -45.2 0 1 182.24 76.21
  L 214.79 57.25
  Z"
/>
<path fill="#bb474c" d="
  M 60.49 96.63
  L 61.04 98.00
  Q 60.75 98.49 60.75 99.75
  Q 60.75 142.75 60.75 185.74
  A 1.11 1.08 15.5 0 0 61.30 186.68
  L 137.47 230.91
  Q 176.44 209.50 215.38 186.53
  A 1.14 1.14 -15.3 0 0 215.94 185.55
  L 215.71 98.00
  L 215.96 96.50
  Q 231.20 87.76 246.31 78.81
  Q 247.59 78.06 249.46 78.25
  Q 249.82 80.99 249.81 83.75
  Q 249.75 139.75 249.87 195.75
  Q 249.88 199.76 249.39 204.86
  A 2.00 1.99 -12.5 0 1 248.39 206.42
  L 138.88 269.56
  A 1.28 1.28 0.0 0 1 137.60 269.56
  Q 83.22 238.14 28.56 206.69
  Q 26.22 205.34 27.04 202.50
  Q 28.01 202.37 28.00 200.75
  Q 27.93 189.72 27.97 178.69
  Q 28.12 129.59 28.00 80.16
  Q 27.99 77.51 30.28 78.86
  Q 42.94 86.35 56.79 94.18
  Q 59.16 95.52 60.49 96.63
  Z"
/>
<path fill="#d5d2ca" d="
  M 61.04 98.00
  Q 62.81 98.11 64.75 99.25
  Q 80.08 108.27 103.94 121.58
  L 104.18 161.47
  L 138.29 181.09
  Q 137.54 205.55 138.25 226.00
  Q 138.33 228.43 137.47 230.91
  L 61.30 186.68
  A 1.11 1.08 15.5 0 1 60.75 185.74
  Q 60.75 142.75 60.75 99.75
  Q 60.75 98.49 61.04 98.00
  Z"
/>
<path fill="#e0ded9" d="
  M 215.71 98.00
  L 215.94 185.55
  A 1.14 1.14 -14.8 0 1 215.38 186.53
  Q 176.44 209.50 137.47 230.91
  Q 138.33 228.43 138.25 226.00
  Q 137.54 205.55 138.29 181.09
  L 172.46 161.26
  L 172.75 121.54
  Q 192.69 110.45 212.34 98.86
  Q 213.90 97.94 215.71 98.00
  Z"
/>
<path fill="#bb474c" d="
  M 172.75 121.54
  L 172.46 161.26
  L 139.56 142.26
  A 2.86 2.78 44.4 0 0 136.74 142.25
  L 104.18 161.47
  L 103.94 121.58
  L 137.44 102.04
  A 1.53 1.52 44.7 0 1 138.95 102.04
  L 172.75 121.54
  Z"
/>
<path fill="#df694c" d="
  M 172.46 161.26
  L 138.29 181.09
  L 104.18 161.47
  L 136.74 142.25
  A 2.86 2.78 44.4 0 1 139.56 142.26
  L 172.46 161.26
  Z"
/>
</svg>
